<?xml version="1.0" standalone="no"?>
<!DOCTYPE svg PUBLIC "-//W3C//DTD SVG 20010904//EN"
 "http://www.w3.org/TR/2001/REC-SVG-20010904/DTD/svg10.dtd">
<svg version="1.0" xmlns="http://www.w3.org/2000/svg"
 width="512.000000pt" height="512.000000pt" viewBox="0 0 512.000000 512.000000"
 preserveAspectRatio="xMidYMid meet">
<metadata>
Created by potrace 1.14, written by Peter Selinger 2001-2017
</metadata>
<g transform="translate(0.000000,512.000000) scale(0.100000,-0.100000)"
fill="#000000" stroke="none">
<path d="M801 3800 c-4 -3 -7 -557 -7 -1232 l0 -1228 386 0 387 0 1 598 c0
328 1 605 1 615 1 11 59 -68 129 -175 71 -106 173 -260 228 -343 54 -82 101
-154 103 -159 2 -6 25 -40 51 -76 26 -36 49 -70 51 -75 2 -6 60 -94 128 -197
l124 -188 387 0 387 0 -1 1233 -1 1232 -375 1 c-206 0 -380 -1 -385 -3 -7 -2
-10 -206 -10 -614 0 -336 -3 -616 -6 -621 -4 -6 -12 0 -20 13 -7 13 -49 80
-94 149 -45 69 -108 166 -140 215 -32 50 -86 133 -120 185 -34 52 -92 142
-130 200 -240 371 -305 470 -313 471 -24 4 -755 3 -761 -1z"/>
<path d="M3775 3449 c-195 -38 -324 -177 -331 -357 -4 -123 31 -208 118 -288
77 -71 162 -103 288 -109 297 -13 497 158 477 408 -13 158 -123 286 -289 337
-46 14 -209 20 -263 9z"/>
<path d="M3758 2064 c-154 -36 -261 -131 -302 -268 -16 -53 -15 -190 1 -221 6
-11 19 -37 29 -58 44 -89 156 -167 274 -192 59 -12 198 -13 251 -1 205 46 332
206 316 398 -13 156 -110 275 -268 329 -78 26 -217 32 -301 13z"/>
</g>
</svg>
